#N canvas 69 41 882 643 10;
#X obj 40 34 hsl 128 25 1000 8000 0 0 empty empty empty -2 -8 0 10
-204800 -1 -1 2300 1;
#X obj 37 91 send LPFdamping;
#X floatatom 37 69 12 0 0 0 - - -, f 12;
#X obj 39 130 hsl 128 20 0.94 0.999 0 0 empty empty empty -2 -8 0 10
-260097 -1 -1 5100 1;
#X floatatom 36 156 10 0 0 0 - - -, f 10;
#X obj 36 175 send energyLoss;
#X obj 86 234 catch~ ksout;
#X obj 137 457 tgl 15 0 empty empty empty 17 7 0 10 -262144 -1 -1 1
1;
#X obj 92 509 dac~;
#X obj 381 87 bng 15 250 50 0 empty empty empty 17 7 0 10 -262144 -1
-1;
#X obj 89 323 delread4~ echo;
#X obj 85 265 delwrite~ echo 1000;
#X obj 215 288 line~;
#X obj 43 362 +~;
#X obj 218 238 hsl 128 15 5 300 0 0 empty empty VariDelay -2 -8 1 14
-203904 -159808 -1 9700 1;
#X obj 135 291 *~ 0.7;
#X msg 215 265 \$1 100;
#X obj 132 376 hsl 128 15 0 0.5 0 0 empty empty Output_Gain -2 -8 1
14 -257985 -260097 -1 3700 1;
#X obj 130 425 line~;
#X obj 92 449 *~;
#X msg 129 402 \$1 10;
#N canvas 105 68 516 471 ksVoiceLive 0;
#X obj 140 73 mtof;
#X obj 140 120 expr 1000/$f1;
#X floatatom 150 143 5 0 0 0 - - -, f 5;
#X floatatom 150 98 5 0 0 0 - - -, f 5;
#X obj 125 257 lop~ 6500;
#X obj 152 291 receive energyLoss;
#X obj 176 233 receive LPFdamping;
#X obj 140 47 inlet;
#X obj 39 257 throw~ ksout;
#X obj 125 201 +~;
#X obj 140 165 delread~ \$0-mimama 1;
#X obj 125 344 *~;
#X obj 152 315 * -1;
#X obj 125 374 delwrite~ \$0-mimama 200;
#X obj 58 44 inlet~;
#X text 139 25 MIDI NOTE INPUT;
#X text 57 24 NOISE INPUT;
#X connect 0 0 1 0;
#X connect 0 0 3 0;
#X connect 1 0 2 0;
#X connect 1 0 10 0;
#X connect 4 0 11 0;
#X connect 5 0 12 0;
#X connect 6 0 4 1;
#X connect 7 0 0 0;
#X connect 9 0 4 0;
#X connect 9 0 8 0;
#X connect 10 0 9 1;
#X connect 11 0 13 0;
#X connect 12 0 11 1;
#X connect 14 0 9 0;
#X restore 214 165 pd ksVoiceLive;
#X obj 259 30 tgl 15 0 empty empty Mute 17 7 0 10 -262144 -1 -1 0 1
;
#X obj 214 82 softmute;
#X obj 92 480 softmute;
#X obj 214 42 adc~;
#X obj 214 133 +~;
#X obj 306 33 hsl 128 15 0 0.7 0 0 empty empty Input_Gain -2 -8 1 14
-261234 -258113 -1 0 1;
#X obj 289 98 line~;
#X msg 290 77 \$1 10;
#N canvas 105 68 516 471 ksVoiceLive2 0;
#X obj 140 73 mtof;
#X obj 140 120 expr 1000/$f1;
#X floatatom 150 143 5 0 0 0 - - -, f 5;
#X floatatom 150 98 5 0 0 0 - - -, f 5;
#X obj 125 257 lop~ 6500;
#X obj 152 291 receive energyLoss;
#X obj 176 233 receive LPFdamping;
#X obj 140 47 inlet;
#X obj 39 257 throw~ ksout;
#X obj 125 201 +~;
#X obj 140 165 delread~ \$0-mimama 1;
#X obj 125 344 *~;
#X obj 152 315 * -1;
#X obj 125 374 delwrite~ \$0-mimama 200;
#X obj 58 44 inlet~;
#X text 139 25 MIDI NOTE INPUT;
#X text 57 24 NOISE INPUT;
#X connect 0 0 1 0;
#X connect 0 0 3 0;
#X connect 1 0 2 0;
#X connect 1 0 10 0;
#X connect 4 0 11 0;
#X connect 5 0 12 0;
#X connect 6 0 4 1;
#X connect 7 0 0 0;
#X connect 9 0 4 0;
#X connect 9 0 8 0;
#X connect 10 0 9 1;
#X connect 11 0 13 0;
#X connect 12 0 11 1;
#X connect 14 0 9 0;
#X restore 326 164 pd ksVoiceLive2;
#X msg 382 120 78;
#X msg 416 120 57;
#X obj 380 62 loadbang;
#X connect 0 0 2 0;
#X connect 2 0 1 0;
#X connect 3 0 4 0;
#X connect 4 0 5 0;
#X connect 6 0 11 0;
#X connect 6 0 13 0;
#X connect 7 0 24 1;
#X connect 9 0 31 0;
#X connect 9 0 32 0;
#X connect 10 0 13 1;
#X connect 10 0 15 0;
#X connect 12 0 10 0;
#X connect 13 0 19 0;
#X connect 14 0 16 0;
#X connect 15 0 11 0;
#X connect 16 0 12 0;
#X connect 17 0 20 0;
#X connect 18 0 19 1;
#X connect 19 0 24 0;
#X connect 20 0 18 0;
#X connect 22 0 23 1;
#X connect 23 0 26 0;
#X connect 24 0 8 0;
#X connect 25 0 23 0;
#X connect 25 1 23 0;
#X connect 26 0 21 0;
#X connect 26 0 30 0;
#X connect 27 0 29 0;
#X connect 28 0 26 1;
#X connect 29 0 28 0;
#X connect 31 0 21 1;
#X connect 32 0 30 1;
#X connect 33 0 9 0;
