#N canvas 20 42 678 555 10;
#X obj 194 82 expr $i1 \; if ($i1 == 1 \, 10 \, 100) \;;
#X obj 194 177 line~;
#X obj 106 208 *~, f 4;
#X obj 107 252 outlet~;
#X obj 102 55 inlet~;
#X obj 175 55 inlet, f 6;
#X text 349 211 Creates a soft audio envelope for muting;
#X text 79 32 Audio INPUT;
#X text 169 33 Toggle INPUT;
#X obj 194 149 pack f f;
#X connect 0 0 9 0;
#X connect 0 1 9 1;
#X connect 1 0 2 1;
#X connect 2 0 3 0;
#X connect 4 0 2 0;
#X connect 5 0 0 0;
#X connect 9 0 1 0;
