#N canvas 48 43 675 708 10;
#X msg 37 169 read melodicMarkov.txt;
#X obj 37 193 text define firstOrder;
#X obj 79 344 text get firstOrder;
#X obj 79 268 bng 15 250 50 0 empty empty empty 17 7 0 10 -262144 -1
-1;
#X msg 113 267 stop;
#X obj 38 222 array define probs 8;
#X obj 106 393 array set probs;
#X obj 52 294 bng 15 250 50 0 empty empty empty 17 7 0 10 -262144 -1
-1;
#X obj 80 416 array random probs;
#X floatatom 252 335 5 0 0 0 - - -, f 5;
#X obj 79 370 t b l;
#X obj 79 320 f;
#X obj 36 132 text define Scale;
#X msg 36 109 read majScalePitchClass.txt;
#X obj 80 442 text get Scale;
#X obj 80 525 noteout 1;
#X text 206 392 loads probabilities to an array;
#X text 174 443 chooses note from the scale;
#X text 201 411 the resulting note is the index to look up in the transition
matrix;
#X text 187 169 Loads the transition matrix from melodicMarkov.txt
the probabilities are only 1 0.5 and 0 \, but later can be refined
;
#X text 110 473 Tonic;
#X obj 80 474 + 61;
#X obj 79 295 metro 200;
#X obj 80 498 makenote 70 198;
#X text 39 28 Chooses notes from a scale with an arbitrary first order
Markov chain. Time and velocities are constant.;
#X text 219 111 loads the scale which is expressed in pitch classes
starting with pitch "0";
#X text 147 268 set tempo;
#X text 167 223 array to use as a random probability chooser;
#X connect 0 0 1 0;
#X connect 2 0 10 0;
#X connect 3 0 22 0;
#X connect 4 0 22 0;
#X connect 7 0 11 0;
#X connect 8 0 9 0;
#X connect 8 0 14 0;
#X connect 9 0 11 1;
#X connect 10 0 8 0;
#X connect 10 1 6 0;
#X connect 11 0 2 0;
#X connect 13 0 12 0;
#X connect 14 0 21 0;
#X connect 21 0 23 0;
#X connect 22 0 11 0;
#X connect 23 0 15 0;
#X connect 23 1 15 1;
